<svg width="28" height="28" viewBox="0 0 28 28" fill="none" xmlns="http://www.w3.org/2000/svg">
<g clip-path="url(#clip0_382_35)">
<path d="M9.13396 16.917C6.9399 17.0581 4.94873 17.8938 3.81889 20.8709C3.69037 21.2105 3.38139 21.4167 3.021 21.4167C2.41342 21.4167 0.534902 19.9035 -0.000488281 19.5382C5.85938e-05 24.0417 2.07436 28 7.00006 28C11.1487 28 14.0001 25.6063 14.0001 21.4271C14.0001 21.257 13.9645 21.0946 13.947 20.9278L9.13396 16.917ZM25.0409 0C24.2119 0 23.4347 0.366953 22.8419 0.899609C11.6633 10.8855 10.5001 11.1202 10.5001 14.0596C10.5001 14.8088 10.6778 15.523 10.9775 16.176L14.4676 19.0843C14.8619 19.1827 15.2683 19.25 15.6921 19.25C19.0887 19.25 21.0575 16.7634 27.2399 5.22484C27.6435 4.44008 28.0001 3.59242 28.0001 2.70977C28.0001 1.12875 26.5782 0 25.0409 0Z" fill="black"/>
</g>
<defs>
<clipPath id="clip0_382_35">
<rect width="28" height="28" fill="black"/>
</clipPath>
</defs>
</svg>
