<svg width="29" height="28" viewBox="0 0 29 28" fill="none" xmlns="http://www.w3.org/2000/svg">
<path d="M12.608 27.9727L9.93942 27.0047C9.65944 26.9062 9.50195 26.5398 9.5807 26.1898L15.5521 0.473784C15.6308 0.123758 15.924 -0.0731322 16.2039 0.0253127L18.8725 0.993354C19.1524 1.0918 19.3099 1.45823 19.2312 1.80826L13.2598 27.5243C13.1767 27.8743 12.8879 28.0766 12.608 27.9727ZM7.62085 21.8363L9.52383 19.2986C9.72506 19.0306 9.71194 18.6041 9.48883 18.3579L5.52539 13.999L9.48883 9.6401C9.71194 9.39399 9.72943 8.96739 9.52383 8.6994L7.62085 6.16171C7.42399 5.89919 7.09152 5.88278 6.87716 6.13437L0.573275 13.5177C0.350168 13.7748 0.350168 14.2178 0.573275 14.4748L6.87716 21.8637C7.09152 22.1153 7.42399 22.1043 7.62085 21.8363ZM21.9347 21.8691L28.2386 14.4803C28.4617 14.2233 28.4617 13.7803 28.2386 13.5232L21.9347 6.1289C21.7247 5.88278 21.3923 5.89372 21.191 6.15624L19.2881 8.69393C19.0868 8.96192 19.1 9.38852 19.3231 9.63463L23.2865 13.999L19.3231 18.3579C19.1 18.6041 19.0825 19.0306 19.2881 19.2986L21.191 21.8363C21.3879 22.1043 21.7204 22.1153 21.9347 21.8691Z" fill="black"/>
</svg>
