<svg width="133" height="95" viewBox="0 0 133 95" fill="none" xmlns="http://www.w3.org/2000/svg">
<path fill-rule="evenodd" clip-rule="evenodd" d="M132.841 79.3263V56.9701C132.841 48.5291 125.999 41.6865 117.557 41.6865C109.112 41.6865 100.97 36.6879 105.266 27.3369C106.807 23.9851 109.347 21.2039 111.232 18.0351C113.61 14.0376 114.449 9.29063 111.872 5.1835C107.516 -1.75957 97.3872 -1.72061 93.0864 5.25788C82.519 22.7215 76.9342 42.7432 76.9342 63.1573V79.3265C76.9342 87.7675 83.7765 94.6101 92.2178 94.6101H117.557C125.998 94.6101 132.841 87.7678 132.841 79.3265M40.623 94.6101H15.2836C6.84258 94.6101 0 87.7678 0 79.3265V63.1573C0 42.7444 5.58691 22.7218 16.1522 5.25788C20.453 -1.72063 30.5833 -1.7596 34.9377 5.1835C37.5149 9.29092 36.6761 14.0379 34.298 18.0351C32.412 21.2039 29.8715 23.9851 28.3322 27.3369C24.0362 36.6879 32.1763 41.6865 40.6232 41.6865C49.0642 41.6865 55.9068 48.5288 55.9068 56.9701V79.3263C55.9068 87.7673 49.0644 94.6101 40.623 94.6101Z" fill="#763CAC"/>
</svg>
