<svg xmlns="http://www.w3.org/2000/svg" xmlns:xlink="http://www.w3.org/1999/xlink" width="500" zoomAndPan="magnify" viewBox="0 0 375 374.999991" height="500" preserveAspectRatio="xMidYMid meet" version="1.0"><defs><g/></defs><g fill="#46145e" fill-opacity="1"><g transform="translate(64.746094, 200.674996)"><g><path d="M 16.640625 1 C 24.796875 1 30.515625 -3.796875 31.40625 -11.359375 L 25 -12.234375 C 24.3125 -7.765625 21.078125 -4.875 16.71875 -4.875 C 11.4375 -4.875 8.078125 -8.515625 8.046875 -14.234375 C 8.046875 -20 11.078125 -23.640625 15.875 -23.640625 C 19.59375 -23.640625 22.078125 -21.234375 22.796875 -17.40625 L 29.046875 -18.953125 C 28.046875 -25.40625 22.875 -29.484375 15.875 -29.484375 C 6.875 -29.484375 1.203125 -23.5625 1.203125 -14.234375 C 1.203125 -4.921875 7.203125 1 16.640625 1 Z M 16.640625 1 "/></g></g></g><g fill="#46145e" fill-opacity="1"><g transform="translate(96.822908, 200.674996)"><g><path d="M 12.28125 0.796875 C 19.15625 0.796875 23.6875 -3.5625 23.6875 -10.234375 C 23.6875 -16.921875 19.15625 -21.28125 12.28125 -21.28125 C 5.4375 -21.28125 0.921875 -16.921875 0.921875 -10.234375 C 0.921875 -3.5625 5.4375 0.796875 12.28125 0.796875 Z M 12.28125 -4.28125 C 9 -4.28125 6.921875 -6.5625 6.921875 -10.234375 C 6.921875 -13.921875 9 -16.203125 12.28125 -16.203125 C 15.5625 -16.203125 17.640625 -13.921875 17.640625 -10.234375 C 17.640625 -6.5625 15.5625 -4.28125 12.28125 -4.28125 Z M 12.28125 -4.28125 "/></g></g></g><g fill="#46145e" fill-opacity="1"><g transform="translate(121.380463, 200.674996)"><g><path d="M 10.046875 0.59375 C 13.234375 0.59375 15.765625 -0.953125 17.203125 -3.921875 L 17.234375 -3.921875 L 18.15625 0 L 23.28125 0 L 23.28125 -29.6875 L 17.15625 -29.6875 L 17.15625 -16.5625 L 17.125 -16.5625 C 15.6875 -19.515625 13.203125 -21.078125 10.046875 -21.078125 C 4.6875 -21.078125 0.921875 -16.765625 0.921875 -10.234375 C 0.921875 -3.765625 4.6875 0.59375 10.046875 0.59375 Z M 12.203125 -4.5625 C 9.203125 -4.5625 7 -7 7 -10.234375 C 7 -13.484375 9.203125 -15.921875 12.203125 -15.921875 C 15.234375 -15.921875 17.40625 -13.484375 17.40625 -10.234375 C 17.40625 -7.046875 15.234375 -4.5625 12.203125 -4.5625 Z M 12.203125 -4.5625 "/></g></g></g><g fill="#46145e" fill-opacity="1"><g transform="translate(146.257994, 200.674996)"><g><path d="M 13.15625 0.796875 C 17.5625 0.796875 21.40625 -1.078125 23.046875 -3.796875 L 19.5625 -6.484375 C 18.359375 -4.84375 15.953125 -3.6875 13.40625 -3.6875 C 10.046875 -3.6875 7.5625 -5.59375 7.203125 -8.5625 L 22.3125 -8.5625 C 22.484375 -9.203125 22.59375 -10.078125 22.59375 -10.875 C 22.5625 -17.046875 18.359375 -21.28125 11.953125 -21.28125 C 5.40625 -21.28125 0.875 -16.84375 0.921875 -10.359375 C 0.921875 -3.765625 5.953125 0.796875 13.15625 0.796875 Z M 7.15625 -12.078125 C 7.515625 -14.953125 9.40625 -16.921875 11.953125 -16.921875 C 14.484375 -16.921875 16.203125 -15.125 16.40625 -12.078125 Z M 7.15625 -12.078125 "/></g></g></g><g fill="#46145e" fill-opacity="1"><g transform="translate(170.055627, 200.674996)"><g><path d="M 2.203125 0 L 8.640625 0 L 8.640625 -20.234375 L 8.71875 -20.234375 L 20.3125 0 L 28.359375 0 L 28.359375 -28.484375 L 21.875 -28.484375 L 21.875 -8.203125 L 21.796875 -8.203125 L 10.203125 -28.484375 L 2.203125 -28.484375 Z M 2.203125 0 "/></g></g></g><g fill="#46145e" fill-opacity="1"><g transform="translate(200.612586, 200.674996)"><g><path d="M 13.15625 0.796875 C 17.5625 0.796875 21.40625 -1.078125 23.046875 -3.796875 L 19.5625 -6.484375 C 18.359375 -4.84375 15.953125 -3.6875 13.40625 -3.6875 C 10.046875 -3.6875 7.5625 -5.59375 7.203125 -8.5625 L 22.3125 -8.5625 C 22.484375 -9.203125 22.59375 -10.078125 22.59375 -10.875 C 22.5625 -17.046875 18.359375 -21.28125 11.953125 -21.28125 C 5.40625 -21.28125 0.875 -16.84375 0.921875 -10.359375 C 0.921875 -3.765625 5.953125 0.796875 13.15625 0.796875 Z M 7.15625 -12.078125 C 7.515625 -14.953125 9.40625 -16.921875 11.953125 -16.921875 C 14.484375 -16.921875 16.203125 -15.125 16.40625 -12.078125 Z M 7.15625 -12.078125 "/></g></g></g><g fill="#46145e" fill-opacity="1"><g transform="translate(224.410219, 200.674996)"><g><path d="M 0.203125 0 L 7.359375 0 L 11.796875 -6.921875 L 16.15625 0 L 23.359375 0 L 16.046875 -10.640625 L 23.046875 -20.484375 L 16 -20.484375 L 11.796875 -13.796875 L 7.5625 -20.484375 L 0.5625 -20.484375 L 7.515625 -10.640625 Z M 0.203125 0 "/></g></g></g><g fill="#46145e" fill-opacity="1"><g transform="translate(247.96788, 200.674996)"><g><path d="M 8.234375 0.59375 C 11.484375 0.59375 14.046875 -0.953125 15.515625 -3.71875 L 15.5625 -3.71875 L 16.484375 0 L 21.640625 0 L 21.640625 -20.484375 L 15.515625 -20.484375 L 15.515625 -9.15625 C 15.515625 -6.359375 13.6875 -4.484375 11.046875 -4.484375 C 8.921875 -4.484375 7.59375 -5.921875 7.59375 -8.234375 L 7.59375 -20.484375 L 1.484375 -20.484375 L 1.484375 -6.359375 C 1.484375 -2 4.046875 0.59375 8.234375 0.59375 Z M 8.234375 0.59375 "/></g></g></g><g fill="#46145e" fill-opacity="1"><g transform="translate(271.245562, 200.674996)"><g><path d="M 10.765625 0.71875 C 16.640625 0.71875 20.71875 -2 20.71875 -6.234375 C 20.71875 -9.640625 18.515625 -11.484375 13.359375 -12.40625 L 10.3125 -12.921875 C 7.875 -13.359375 6.84375 -14 6.84375 -15.046875 C 6.875 -16.28125 8.3125 -17.28125 10.234375 -17.28125 C 12.4375 -17.28125 14.078125 -16.15625 14.234375 -14.40625 L 19.4375 -15.15625 C 18.921875 -18.765625 15.28125 -21.203125 10.4375 -21.203125 C 5.203125 -21.203125 1.640625 -18.640625 1.640625 -14.484375 C 1.640625 -11.125 3.5625 -9.40625 8.078125 -8.6875 L 11.125 -8.203125 C 14 -7.71875 15.234375 -7 15.234375 -5.765625 C 15.234375 -4.359375 13.40625 -3.359375 11.125 -3.359375 C 8.359375 -3.359375 6.234375 -4.765625 6.046875 -6.953125 L 0.71875 -6.359375 C 1 -1.796875 5.234375 0.71875 10.765625 0.71875 Z M 10.765625 0.71875 "/></g></g></g><g fill="#46145e" fill-opacity="1"><g transform="translate(46.300782, 200.674996)"><g><path d="M 15.078125 -3.84375 L 16.84375 -8.59375 L 5.203125 -13.640625 L 16.84375 -18.6875 L 15.078125 -23.40625 L 1.59375 -16.875 L 1.59375 -10.40625 Z M 15.078125 -3.84375 "/></g></g></g><g fill="#46145e" fill-opacity="1"><g transform="translate(326.257658, 178.220964)"><g><path d="M -15.078125 3.84375 L -16.84375 8.59375 L -5.203125 13.640625 L -16.84375 18.6875 L -15.078125 23.40625 L -1.59375 16.875 L -1.59375 10.40625 Z M -15.078125 3.84375 "/></g></g></g><g fill="#46145e" fill-opacity="1"><g transform="translate(292.65233, 199.124987)"><g><path d="M 1.921875 11.28125 L 16.3125 -33.46875 L 14.515625 -34.03125 L 0.234375 10.765625 Z M 1.921875 11.28125 "/></g></g></g></svg>