<svg width="75" height="75" viewBox="0 0 75 75" fill="none" xmlns="http://www.w3.org/2000/svg">
<path fill-rule="evenodd" clip-rule="evenodd" d="M23.7275 7.98195C21.4278 8.01857 19.163 8.55072 17.0871 9.54172L26.2315 18.6861C28.3207 20.7759 28.3207 24.1398 26.2315 26.2295C24.1423 28.3193 20.7779 28.3193 18.6887 26.2295L9.54312 17.0833C8.11775 20.0662 7.65201 23.4176 8.20874 26.6763C8.76607 29.935 10.3184 32.9414 12.6537 35.2817C14.994 37.6168 17.9998 39.1692 21.2584 39.7266C24.5171 40.2833 27.868 39.8176 30.8508 38.3922L57.9109 65.4523C60 67.542 63.3645 67.542 65.4537 65.4523C67.5428 63.3625 67.5428 59.9986 65.4537 57.9089L38.3936 30.8474C39.8178 27.8645 40.2835 24.5143 39.7263 21.256C39.1695 17.9979 37.6172 14.992 35.2831 12.6518C32.2213 9.59732 28.0534 7.91275 23.7286 7.98145L23.7275 7.98195Z" fill="black"/>
<path fill-rule="evenodd" clip-rule="evenodd" d="M64.6948 8.10938C64.1409 8.1254 63.6145 8.356 63.2276 8.75368L60.2109 11.772H60.2103C59.827 12.1428 59.5958 12.6435 59.5632 13.1762L41.2731 31.4662L43.5334 33.7281L61.8234 15.438C62.3561 15.4043 62.8574 15.1725 63.2276 14.7874L66.2443 11.7702V11.7707C66.658 11.3685 66.8909 10.8169 66.8909 10.2401C66.8909 9.66336 66.6569 9.11173 66.2432 8.71008C65.83 8.30839 65.271 8.09095 64.6948 8.10812L64.6948 8.10938Z" fill="black"/>
<path fill-rule="evenodd" clip-rule="evenodd" d="M30.3764 40.1821C29.0123 40.72 27.6058 41.0742 26.1908 41.2676L9.67319 57.7823C7.58403 59.872 7.58403 63.2359 9.67319 65.3256C11.7624 67.4154 15.128 67.4154 17.2177 65.3256L36.3676 46.1742L30.3764 40.1821Z" fill="black"/>
</svg>
